{"title":"Bullet for my Valentine - The Poison: Live at Brixton","uid":7104711,"size":733964288,"categoryP":"video","categoryS":"music_videos","magnet":"?xt=urn:btih:b0e4e6ee5edc6f9c6f938613a2669e1f0865c755&amp;dn=Bullet+for+my+Valentine+-+The+Poison%3A+Live+at+Brixton&amp;tr=udp%3A%2F%2Ftracker.openbittorrent.com%3A80&amp;tr=udp%3A%2F%2Fopen.demonii.com%3A1337&amp;tr=udp%3A%2F%2Ftracker.coppersurfer.tk%3A6969&amp;tr=udp%3A%2F%2Fexodus.desync.com%3A6969","seeders":0,"leechers":1,"uploader":"yesrno","files":1,"time":1331828509,"description":"Bullet for my Valentine Live at Brixton 2006. No extras included/documentary's included.\nFile info:\nencoder         : VirtualDubMod 1.5.4.1 (build 2178/release)\nIAS1            : English\nDuration: 01:06:28.00, start: 0.000000, bitrate: 1472 kb/s\n\nStream #0:0: Video: mpeg4 (Advanced Simple Profile) (XVID / 0x44495658), yuv\n420p, 544x304 [SAR 1:1 DAR 34:19], 25 tbr, 25 tbn, 25 tbc\nStream #0:1: Audio: mp3 (U[0][0][0] / 0x0055), 48000 Hz, stereo, s16, 96 kb/s\n\nTracklist:\nIntro\nHer Voice Resides\n4 Words (To Choke Upon)\nSuffocating Under Words of Sorrow (What Can I Do)\nAll These Things I Hate (Revolve Around Me)\nThe Poison\nSpit You Out\nCries In Vain\nJust Another Star\nTears Don't Fall\nNo Control\nHand of Blood\nThe End\n","torrent":{"xt":"urn:btih:b0e4e6ee5edc6f9c6f938613a2669e1f0865c755","amp;dn":"Bullet+for+my+Valentine+-+The+Poison%3A+Live+at+Brixton","amp;tr":["udp%3A%2F%2Ftracker.openbittorrent.com%3A80","udp%3A%2F%2Fopen.demonii.com%3A1337","udp%3A%2F%2Ftracker.coppersurfer.tk%3A6969","udp%3A%2F%2Fexodus.desync.com%3A6969"],"infoHash":"b0e4e6ee5edc6f9c6f938613a2669e1f0865c755","infoHashBuffer":{"type":"Buffer","data":[176,228,230,238,94,220,111,156,111,147,134,19,162,102,158,31,8,101,199,85]},"announce":[],"urlList":[]}}